<svg width="420" height="120" viewBox="0 0 420 120" xmlns="http://www.w3.org/2000/svg">
  <defs>
    <linearGradient id="gf1" x1="0%" y1="0%" x2="100%" y2="100%">
      <stop offset="0%" stop-color="#7C3AED"/>
      <stop offset="100%" stop-color="#4F46E5"/>
    </linearGradient>
  </defs>
  
  <!-- Mini icon -->
  <g transform="translate(0, 0) scale(0.5)">
    <path d="M 120 20 L 200 58 L 200 130 C 200 178 166 210 120 224 C 74 210 40 178 40 130 L 40 58 Z" fill="url(#gf1)" opacity="0.12"/>
    <path d="M 120 20 L 200 58 L 200 130 C 200 178 166 210 120 224 C 74 210 40 178 40 130 L 40 58 Z" fill="none" stroke="url(#gf1)" stroke-width="5"/>
    <rect x="76" y="62" width="88" height="30" rx="6" fill="url(#gf1)"/>
    <rect x="76" y="100" width="88" height="30" rx="6" fill="url(#gf1)" opacity="0.75"/>
    <rect x="76" y="138" width="88" height="30" rx="6" fill="url(#gf1)" opacity="0.5"/>
    <circle cx="120" cy="96" r="6" fill="none" stroke="#fff" stroke-width="3"/>
    <circle cx="120" cy="134" r="6" fill="none" stroke="#fff" stroke-width="3"/>
    <rect x="112" y="67" width="16" height="12" rx="2.5" fill="#0a0a14"/>
    <path d="M 115 67 L 115 63 C 115 59 117 57 120 57 C 123 57 125 59 125 63 L 125 67" fill="none" stroke="#0a0a14" stroke-width="2.5" stroke-linecap="round"/>
    <circle cx="186" cy="186" r="20" fill="url(#gf1)"/>
    <polyline points="177,186 183,192 197,179" fill="none" stroke="#fff" stroke-width="3.5" stroke-linecap="round" stroke-linejoin="round"/>
  </g>

  <!-- Text -->
  <text x="132" y="52" font-family="'Inter', 'Segoe UI', system-ui, sans-serif" font-size="40" font-weight="800" fill="#ffffff" letter-spacing="-1">Connector</text>
  <text x="132" y="78" font-family="'Inter', 'Segoe UI', system-ui, sans-serif" font-size="18" font-weight="500" fill="#7C3AED" letter-spacing="6">OSS</text>
  <text x="132" y="104" font-family="'Inter', 'Segoe UI', system-ui, sans-serif" font-size="12" font-weight="400" fill="rgba(255,255,255,0.35)" letter-spacing="0.5">Tamper-Proof Memory for AI Agents</text>
</svg>
